<?xml version="1.0" standalone="no"?>
<!DOCTYPE svg PUBLIC "-//W3C//DTD SVG 20010904//EN"
 "http://www.w3.org/TR/2001/REC-SVG-20010904/DTD/svg10.dtd">
<svg version="1.0" xmlns="http://www.w3.org/2000/svg"
 width="402.000000pt" height="402.000000pt" viewBox="0 0 402.000000 402.000000"
 preserveAspectRatio="xMidYMid meet">
<metadata>
Created by potrace 1.11, written by Peter Selinger 2001-2013
</metadata>
<g transform="translate(0.000000,402.000000) scale(0.100000,-0.100000)"
fill="#000000" stroke="none">
<path d="M0 2010 l0 -2010 2010 0 2010 0 0 2010 0 2010 -2010 0 -2010 0 0
-2010z m2683 1605 l657 -379 -2 -1224 -3 -1224 -655 -379 c-360 -208 -657
-379 -660 -379 -3 0 -300 170 -660 378 l-655 379 -3 1225 -2 1225 657 381
c362 209 661 379 664 379 3 -1 301 -173 662 -382z"/>
<path d="M1445 3471 l-570 -330 0 -1128 0 -1128 565 -327 c311 -180 570 -327
577 -327 6 -1 267 147 580 327 l568 328 3 1126 2 1125 -574 332 c-316 182
-576 331 -577 331 -2 0 -260 -148 -574 -329z m485 -533 l-1 -613 -270 -154
c-148 -85 -266 -158 -262 -162 5 -4 125 -75 268 -157 l260 -151 3 -610 c1
-336 0 -611 -3 -611 -3 0 -41 20 -83 45 l-77 45 -5 516 -5 516 -265 154 c-146
85 -268 154 -272 154 -4 0 -9 -229 -10 -509 l-3 -509 -80 47 -80 48 -3 1025
-2 1026 79 46 c44 25 83 46 86 46 3 0 5 -228 5 -506 0 -432 2 -505 14 -502 8
2 132 71 275 153 l261 150 0 515 0 515 83 47 c45 26 83 48 85 48 1 0 2 -276 2
-612z m624 357 l435 -250 1 -202 0 -202 -77 -43 c-43 -24 -81 -44 -85 -46 -5
-2 -8 86 -8 195 l0 198 -266 153 c-146 84 -268 152 -270 149 -2 -2 -3 -559 -2
-1239 l3 -1235 268 155 267 154 0 194 c0 126 4 194 10 194 6 0 44 -19 85 -42
l74 -43 1 -201 0 -200 -432 -250 c-237 -137 -437 -250 -445 -252 -11 -3 -13
251 -13 1533 0 1007 3 1536 10 1533 5 -1 205 -115 444 -253z"/>
</g>
</svg>
